<?xml version="1.0" encoding="UTF-8" standalone="no"?>
<!-- Created with Inkscape (http://www.inkscape.org/) -->

<svg
   width="51.731537mm"
   height="59.480103mm"
   viewBox="0 0 51.731537 59.480103"
   version="1.1"
   id="svg5"
   xml:space="preserve"
   xmlns="http://www.w3.org/2000/svg"
   xmlns:svg="http://www.w3.org/2000/svg"><defs
     id="defs2" /><g
     id="layer1"
     transform="translate(-431.73808,-698.37571)"><path
       style="fill:#000000;stroke-width:0.264583"
       d="m 454.56532,757.35432 c 0.0983,-0.35018 0.34616,-1.71724 0.55083,-3.03791 0.20468,-1.32067 0.49036,-3.10661 0.63486,-3.96875 0.1445,-0.86214 0.33615,-2.95304 0.42589,-4.64645 0.0897,-1.6934 0.27529,-3.7678 0.41232,-4.60977 0.42268,-2.59707 0.29632,-2.76235 -2.11193,-2.76235 h -2.052 l -0.72468,1.04572 c -0.39858,0.57514 -1.33751,1.62815 -2.08651,2.34002 l -1.36182,1.2943 -0.0766,4.07613 c -0.0686,3.65245 -0.24813,5.64561 -0.85569,9.50008 -0.38375,2.43457 -0.27114,-0.53327 0.13553,-3.57187 0.21423,-1.60073 0.39184,-4.48192 0.39468,-6.40265 l 0.005,-3.49223 -0.91754,0.38338 c -1.35924,0.56792 -2.33922,0.47369 -4.45477,-0.42835 -1.04705,-0.44645 -2.49904,-0.92192 -3.22665,-1.05661 -1.67803,-0.31061 -3.33938,-1.02666 -3.78531,-1.63149 -0.19015,-0.25791 -0.48781,-0.46514 -0.66146,-0.46051 -0.17365,0.005 -0.0846,0.18322 0.19787,0.39687 0.28247,0.21366 0.3913,0.38846 0.24184,0.38846 -0.43822,0 -2.10613,-1.99829 -2.71124,-3.24827 -0.77664,-1.60433 -0.67739,-1.92372 0.12111,-0.38975 0.35982,0.69123 0.70315,1.25677 0.76296,1.25677 0.17889,0 -0.28505,-1.42345 -0.76887,-2.35905 -0.53523,-1.03503 -0.39648,-1.78891 0.50908,-2.76603 0.60348,-0.65117 1.18514,-2.01867 0.85862,-2.01867 -0.2347,0 -1.80693,2.59352 -2.03742,3.36088 -0.20323,0.67663 -0.22427,0.68707 -0.24506,0.1217 -0.0125,-0.34016 0.39398,-1.36363 0.9033,-2.27439 0.50932,-0.91075 0.92604,-1.93815 0.92604,-2.2831 0,-0.86816 0.78242,-2.914 1.36565,-3.57088 0.54245,-0.61095 1.10339,-4.27176 1.0378,-6.77293 -0.0264,-1.00745 0.12588,-1.82925 0.46581,-2.51354 0.41694,-0.83931 0.5087,-1.63298 0.52593,-4.54897 0.0261,-4.41621 1.12003,-7.32881 2.44503,-6.50991 0.21233,0.13122 0.25957,0.093 0.13475,-0.10894 -0.22808,-0.36903 1.33657,-1.09367 2.36145,-1.09367 0.72179,0 2.60116,-0.84999 3.36643,-1.52255 0.39294,-0.34533 0.5246,-0.35035 0.92604,-0.0353 0.41822,0.3282 0.43201,0.32119 0.12968,-0.0659 -0.40531,-0.51889 0.8099,-1.70835 2.01235,-1.96972 2.25432,-0.49 3.39372,-1.10235 4.01712,-2.15894 1.02184,-1.73188 4.3282,1.64682 6.99496,7.14798 l 1.65298,3.40989 0.42159,-0.88843 c 0.67132,-1.41469 1.72271,-4.46185 2.03623,-5.90141 0.15846,-0.72761 0.34613,-1.515 0.41705,-1.74978 0.0981,-0.32481 -0.17302,-0.50437 -1.13418,-0.75113 -1.98415,-0.50938 -4.30583,-1.3791 -4.30583,-1.61299 0,-0.11711 -0.20836,-0.26738 -0.46302,-0.33393 -0.43194,-0.11287 -0.43122,-0.12306 0.0107,-0.15169 0.26055,-0.0169 0.79634,0.2072 1.19063,0.49796 0.39429,0.29075 1.60722,0.77494 2.6954,1.07596 1.08818,0.30103 2.12342,0.66759 2.30054,0.81458 0.42793,0.35516 1.55957,0.16906 1.47563,-0.24266 -0.0364,-0.17845 0.0587,-0.32445 0.21121,-0.32445 0.15255,0 0.44554,-0.38695 0.6511,-0.85989 0.20556,-0.47295 0.37841,-0.67803 0.38411,-0.45575 0.006,0.22228 -0.18039,0.67647 -0.41351,1.0093 -0.23312,0.33283 -0.38195,0.63348 -0.33073,0.66812 0.0512,0.0346 0.39578,0.25157 0.76569,0.48208 0.37967,0.2366 1.11225,1.30879 1.68222,2.46204 1.41977,2.87271 4.18801,5.33941 4.82871,4.30272 0.10001,-0.16181 0.0498,-0.20507 -0.11787,-0.10146 -0.16209,0.10018 -0.43049,-0.0878 -0.6028,-0.42214 -0.17083,-0.3315 -0.77212,-1.22269 -1.33619,-1.98044 -0.56407,-0.75774 -1.0218,-1.47211 -1.01717,-1.5875 0.005,-0.11538 0.17179,0.006 0.37147,0.26907 0.19969,0.26337 0.43334,0.36514 0.51924,0.22616 0.13886,-0.22468 -0.4239,-0.62065 -0.96951,-0.68216 -0.43162,-0.0487 -1.25843,-1.67694 -1.55663,-3.06556 -0.17187,-0.80037 -0.42647,-1.60404 -0.56576,-1.78594 -0.35407,-0.46237 0.19149,-0.43244 0.57664,0.0316 0.39657,0.47785 2.08671,1.08418 4.49479,1.61248 1.07394,0.23561 2.28771,0.60167 2.69728,0.81347 0.40958,0.21179 1.71985,0.61215 2.91172,0.88968 2.51637,0.58593 3.48757,1.35543 4.25183,3.36879 0.69569,1.83273 0.39242,1.72661 -0.45368,-0.15875 -0.81377,-1.81333 -1.62262,-2.5253 -3.16661,-2.78737 -0.57717,-0.098 -1.28659,-0.24443 -1.57649,-0.32547 -0.46325,-0.1295 -0.48336,-0.0947 -0.16604,0.28769 0.41481,0.49982 0.22479,0.55701 -0.5223,0.15718 -0.28555,-0.15282 -0.45709,-0.37833 -0.3812,-0.50113 0.14479,-0.23426 -1.15581,-0.82468 -2.83306,-1.28608 -1.1021,-0.30319 -1.58374,0.0205 -0.71909,0.48324 0.52138,0.27903 0.52938,0.33529 0.13361,0.93932 -0.24757,0.37784 -0.30306,0.64251 -0.13469,0.64251 0.15746,0 0.219,0.10889 0.13674,0.24198 -0.0823,0.13309 -0.0455,0.28192 0.0817,0.33073 0.1272,0.0488 0.31199,0.3864 0.41065,0.7502 0.15613,0.57571 0.0568,0.52598 -0.76633,-0.38355 -0.7316,-0.80841 -0.91924,-1.21312 -0.82872,-1.78744 0.0659,-0.41852 0.01,-0.67607 -0.12905,-0.59034 -0.13533,0.0836 -0.16173,0.29267 -0.0587,0.46451 0.10504,0.17514 -0.0108,0.15167 -0.26353,-0.0534 -0.28452,-0.23082 -0.36356,-0.47492 -0.2142,-0.66145 0.15623,-0.19511 -0.0676,-0.49391 -0.65819,-0.87876 -0.49221,-0.32072 -0.89493,-0.46955 -0.89493,-0.33073 0,0.13882 -0.11906,0.2524 -0.26458,0.2524 -0.14552,0 -0.23482,-0.14175 -0.19844,-0.31501 0.0364,-0.17326 -0.17198,-0.35825 -0.46302,-0.4111 -0.31412,-0.057 -0.41086,-0.01 -0.23804,0.11658 0.16011,0.11696 0.43398,0.48388 0.60858,0.81538 0.17578,0.33373 0.44788,0.52213 0.60966,0.42214 0.17774,-0.10985 0.2172,-0.0592 0.10073,0.1292 -0.1053,0.17038 -0.28244,0.25354 -0.39366,0.18481 -0.11121,-0.0687 -0.2022,0.0418 -0.2022,0.24557 0,0.20379 0.0695,0.36305 0.15434,0.3539 0.59923,-0.0646 0.85272,0.0974 0.71485,0.45665 -0.09,0.23449 -0.0459,0.34158 0.10285,0.24966 0.14324,-0.0885 0.40454,0.17319 0.58066,0.58157 0.17613,0.40839 0.63658,1.15925 1.02321,1.66857 0.38664,0.50932 0.92266,1.34276 1.19116,1.85208 0.55584,1.05438 0.50462,0.91817 0.77105,2.05052 0.11128,0.47295 0.31925,0.8599 0.46215,0.8599 0.1429,0 0.18891,0.18478 0.10225,0.41062 -0.0867,0.22584 -0.0507,0.34454 0.08,0.26379 0.23909,-0.14777 1.34387,1.86785 1.34387,2.45183 0,0.17234 0.10858,0.31334 0.24128,0.31334 0.13271,0 0.2085,0.29875 0.16841,0.66388 -0.06,0.54687 -0.007,0.60893 0.30281,0.35209 0.20663,-0.17148 0.34732,-0.20234 0.31264,-0.0686 -0.0838,0.32344 0.59068,2.5393 0.89604,2.94362 0.13258,0.17552 0.17052,0.43325 0.0843,0.57271 -0.0862,0.13947 -0.0654,0.29351 0.0461,0.34232 0.34918,0.15277 1.56663,3.52469 1.53484,4.25097 -0.0167,0.38045 0.0625,0.63436 0.176,0.56424 0.29344,-0.18135 0.25541,0.1109 -0.10162,0.78103 -0.26739,0.50188 -0.25555,0.53476 0.09,0.24989 0.34274,-0.28256 0.3938,-0.18605 0.36827,0.69613 -0.0235,0.81339 0.0532,0.99322 0.37302,0.87381 0.35113,-0.13112 0.3546,-0.0913 0.0271,0.31098 -0.3243,0.39842 -0.3243,0.45029 0,0.38027 0.20653,-0.0446 0.34575,0.0677 0.30937,0.24965 -0.0364,0.18191 0.11477,0.33073 0.3359,0.33073 0.44363,0 0.38769,0.87082 -0.11645,1.81282 -0.19824,0.3704 -0.20163,0.5891 -0.011,0.70693 0.15184,0.0938 0.21279,0.42849 0.13545,0.74367 -0.0773,0.31517 -0.072,0.42347 0.0118,0.24066 0.0838,-0.1828 0.23583,-0.28084 0.33774,-0.21786 0.1019,0.063 0.18529,-0.10636 0.18529,-0.37633 0,-0.26996 -0.0638,-0.46958 -0.14175,-0.44359 -0.078,0.026 -0.18043,-0.0688 -0.22773,-0.21072 -0.0473,-0.14189 0.0319,-0.29727 0.17599,-0.3453 0.14409,-0.048 0.35552,0.18712 0.46986,0.52255 0.30098,0.883 0.29895,1.09534 -0.0145,1.51566 -0.22717,0.30466 -0.16796,0.34753 0.30991,0.22441 0.52007,-0.134 0.55742,-0.09 0.31227,0.36807 -0.23593,0.44086 -0.34326,0.46719 -0.70307,0.17247 -0.34362,-0.28146 -0.3343,-0.209 0.0489,0.37979 0.52122,0.80091 0.7445,0.94618 0.50833,0.33073 -0.0838,-0.21828 -0.0135,-0.39687 0.15621,-0.39687 0.16968,0 0.23492,0.11906 0.14499,0.26458 -0.0899,0.14552 -0.008,0.2682 0.18282,0.27263 0.19986,0.005 0.13709,0.12962 -0.14842,0.29549 -0.36875,0.21424 -0.41033,0.33964 -0.16327,0.49233 0.25795,0.15942 0.23564,0.34174 -0.10054,0.82171 -0.50433,0.72003 -0.55906,1.4477 -0.12888,1.71356 0.21459,0.13263 0.24987,-0.025 0.12075,-0.53944 -0.13431,-0.53514 -0.0922,-0.69606 0.15985,-0.61019 0.38564,0.13142 0.30193,1.29916 -0.11158,1.55664 -0.15981,0.0995 -0.20923,0.84318 -0.12308,1.85208 l 0.14396,1.68582 -0.25319,-1.45521 c -0.13926,-0.80037 -0.38075,-2.19213 -0.53665,-3.09282 -0.1559,-0.90068 -0.19404,-1.78228 -0.0848,-1.95911 0.12174,-0.19699 0.088,-0.25311 -0.087,-0.14491 -0.18129,0.11204 -0.3978,-0.3807 -0.59237,-1.34819 -0.16865,-0.83862 -0.65275,-2.59633 -1.07576,-3.90602 -0.42301,-1.30968 -0.79991,-3.1127 -0.83757,-4.0067 -0.0377,-0.89401 -0.17502,-1.56092 -0.30526,-1.48203 -0.13024,0.0789 -0.1772,-0.16832 -0.10437,-0.54935 0.0728,-0.38103 0.0502,-0.64193 -0.0504,-0.57979 -0.31682,0.19581 -1.89253,-3.95719 -1.71125,-4.51024 0.13185,-0.40223 0.10952,-0.43052 -0.10302,-0.13048 -0.21726,0.30671 -0.30827,0.22758 -0.45646,-0.39687 -0.29876,-1.25889 -1.45593,-3.67181 -1.87521,-3.91016 -0.32081,-0.18237 -0.32783,-0.29239 -0.0412,-0.64611 0.18997,-0.23446 0.21398,-0.34765 0.0534,-0.25152 -0.28417,0.17008 -0.895,-0.82853 -0.90206,-1.47472 -0.002,-0.17505 -0.74606,-0.66664 -1.65365,-1.09242 -0.90759,-0.42578 -1.98355,-1.12426 -2.39103,-1.55219 -1.02563,-1.07713 -1.20952,-0.69398 -0.31538,0.65715 0.40754,0.61584 0.75238,1.43999 0.76632,1.83146 0.0139,0.39146 0.10866,0.66059 0.2105,0.59805 0.28693,-0.17617 0.80001,0.95291 0.63199,1.39076 -0.0823,0.21447 -0.0411,0.32287 0.0915,0.2409 0.50395,-0.31147 3.00105,7.34996 3.35971,10.30801 0.0706,0.58209 0.32216,1.95131 0.55909,3.04271 0.23693,1.09141 0.4383,2.30043 0.44748,2.68672 0.009,0.38628 0.0924,0.65556 0.18489,0.59839 0.0925,-0.0572 0.23153,0.16256 0.30895,0.48829 0.0774,0.32572 0.44824,1.66302 0.82405,2.97177 0.98682,3.43667 1.25532,5.14706 0.96622,6.15509 -0.28082,0.97918 -0.12102,1.15569 0.23789,0.26276 0.21003,-0.52253 0.24134,-0.53293 0.25606,-0.0851 0.009,0.28063 0.73114,2.62047 1.60427,5.19965 1.73919,5.1375 1.8695,5.99181 1.02973,6.75067 -0.30676,0.27721 -0.84963,1.07959 -1.20636,1.78306 -0.36037,0.71066 -0.78858,1.22536 -0.96359,1.15824 -0.1843,-0.0707 -0.33097,0.14201 -0.3535,0.51264 -0.0674,1.10851 -0.57076,1.47926 -1.28337,0.94526 -0.33439,-0.25058 -0.54231,-0.56329 -0.46206,-0.69491 0.0803,-0.13162 0.012,-0.15652 -0.15178,-0.0553 -0.31383,0.19395 -2.04646,-0.57386 -1.81569,-0.80463 0.0738,-0.0738 0.37454,-0.006 0.66827,0.1516 0.44084,0.23593 0.56262,0.19584 0.69767,-0.22964 0.0906,-0.28532 0.31987,-0.4555 0.51361,-0.38116 0.29392,0.11279 0.39807,-1.05958 0.17587,-1.97965 -0.0131,-0.0542 -0.21613,0.0611 -0.4512,0.25617 -0.51719,0.42923 -1.64529,0.52446 -1.87177,0.15801 -0.0901,-0.14581 -0.0346,-0.18524 0.12334,-0.0876 0.15795,0.0976 0.35688,0.0647 0.44207,-0.0731 0.32518,-0.52615 -0.36584,-0.53329 -0.73405,-0.008 -0.21958,0.31348 -0.45826,0.4383 -0.55105,0.28816 -0.29385,-0.47545 1.07698,-1.81053 1.46587,-1.42764 0.47671,0.46937 0.79566,0.40949 0.70469,-0.13229 -0.0428,-0.25467 0.0632,-0.4359 0.2354,-0.40274 0.17223,0.0332 0.67824,-0.4007 1.12448,-0.96412 0.86517,-1.09238 0.9679,-1.34512 0.54674,-1.34512 -0.14552,0 -0.23482,0.0916 -0.19844,0.20356 0.10955,0.33714 -1.03791,1.64531 -1.26406,1.44111 -0.11541,-0.10421 -0.11282,-0.0222 0.006,0.18214 0.13154,0.22674 0.11342,0.30847 -0.0465,0.20964 -0.21952,-0.13567 -0.26462,-1.03179 -0.0759,-1.50729 0.0289,-0.0728 0.0326,-0.33313 0.008,-0.57861 -0.0243,-0.24548 0.20006,-0.57709 0.4987,-0.73692 0.29863,-0.15982 0.54297,-0.20841 0.54297,-0.10798 0,0.35912 1.00823,-0.73757 1.13948,-1.23945 0.18874,-0.72179 0.053,-0.64035 -0.57988,0.34786 -0.30288,0.47294 -0.55269,0.69261 -0.55514,0.48816 -0.004,-0.29552 -0.1038,-0.28184 -0.48895,0.0667 -0.55068,0.49836 -0.88182,0.33435 -0.63837,-0.31617 0.14227,-0.38016 0.10541,-0.38981 -0.28281,-0.074 -0.71077,0.57815 -0.52148,0.10031 0.47963,-1.2108 0.50932,-0.66704 0.92604,-1.10043 0.92604,-0.96308 0,0.13734 -0.14883,0.41005 -0.33073,0.60602 -0.2615,0.28173 -0.2618,0.31742 -10e-4,0.17048 0.18111,-0.10222 0.46088,-0.43171 0.62171,-0.7322 0.2115,-0.3952 0.21189,-0.49661 10e-4,-0.36653 -0.16003,0.0989 -0.29098,0.0392 -0.29098,-0.13276 0,-0.23569 -0.0898,-0.23809 -0.36491,-0.01 -0.51225,0.42514 -0.74526,-0.86528 -0.26986,-1.49451 0.32041,-0.42409 0.34088,-0.41232 0.24166,0.13905 -0.0596,0.33131 -0.006,0.53919 0.1188,0.46197 0.12495,-0.0772 0.19655,-0.3483 0.15911,-0.60238 -0.0374,-0.25409 0.12199,-0.61109 0.35429,-0.79335 0.37912,-0.29745 0.37496,-0.31487 -0.0407,-0.17013 -0.53997,0.18805 -0.60635,-0.15796 -0.13229,-0.68958 0.263,-0.29494 0.2281,-0.29266 -0.17046,0.0112 -0.46086,0.3513 -0.4866,0.3361 -0.31997,-0.18893 0.24006,-0.75633 -0.26375,-1.04284 -0.63008,-0.35833 -0.15795,0.29512 -0.20887,0.53657 -0.11317,0.53657 0.0957,0 0.0258,0.1786 -0.15538,0.39688 -0.39044,0.47045 0.0172,0.53839 0.47625,0.0794 0.24694,-0.24694 0.3175,-0.21754 0.3175,0.1323 0,0.24738 -0.10518,0.44979 -0.23373,0.44979 -0.12855,0 -0.30111,0.2577 -0.38348,0.57268 -0.1091,0.41717 -0.2432,0.50257 -0.49388,0.31449 -0.5085,-0.38151 -0.93123,-0.29025 -1.40566,0.30345 -0.41492,0.51923 -0.41759,0.51827 -0.14226,-0.0514 0.15433,-0.31932 0.39903,-0.65376 0.54376,-0.74322 0.38706,-0.23921 0.32045,-0.90567 -0.13614,-1.36226 -0.44226,-0.44226 -0.27358,-0.99567 0.21915,-0.71902 0.21069,0.11829 0.20474,0.0594 -0.0183,-0.1809 -0.49113,-0.52912 -0.40106,-1.39558 0.19843,-1.90888 0.65348,-0.55952 0.72295,-0.0589 0.11272,0.8123 -0.22904,0.32701 -0.31834,0.56634 -0.19844,0.53183 0.11991,-0.0345 0.474,0.0794 0.78688,0.25321 0.46733,0.25956 0.59686,0.24299 0.72574,-0.0928 0.0863,-0.22483 0.247,-0.35319 0.35717,-0.28522 0.11017,0.068 0.20383,-0.27248 0.20814,-0.75656 0.004,-0.48407 -0.0869,-0.82156 -0.20275,-0.74998 -0.11582,0.0716 -0.13072,0.25938 -0.0331,0.41733 0.10593,0.17141 0.0543,0.21108 -0.12798,0.0984 -0.46519,-0.2875 -0.36628,-0.89049 0.2466,-1.50337 0.54528,-0.54528 0.54646,-0.57532 0.096,-2.44739 -0.54952,-2.28386 -0.6792,-2.54301 -0.93971,-1.87778 -0.15686,0.40057 -0.20438,0.32497 -0.21894,-0.34829 -0.0102,-0.47294 -0.11561,-0.8599 -0.23418,-0.8599 -0.70392,0 -1.29823,-2.42261 -0.71337,-2.90799 0.41408,-0.34366 0.28003,-0.91691 -0.15198,-0.64991 -0.13784,0.0852 -0.18296,0.26436 -0.10027,0.39816 0.0827,0.13379 -0.0337,0.17262 -0.25874,0.0863 -0.22501,-0.0863 -0.34831,-0.25534 -0.27401,-0.37556 0.0743,-0.12022 0.0253,-0.28646 -0.10898,-0.36942 -0.13423,-0.083 -0.17695,-0.40746 -0.0949,-0.72111 0.10217,-0.39069 0.0527,-0.51067 -0.15713,-0.381 -0.43982,0.27183 -0.37982,-0.41293 0.0957,-1.09177 0.37054,-0.52903 0.36362,-0.56644 -0.0887,-0.47933 -0.89552,0.17246 -1.29649,-0.27885 -0.86602,-0.97475 0.34711,-0.56116 0.34107,-0.5768 -0.0863,-0.22353 -0.46958,0.38815 -0.89707,0.10237 -0.964,-0.64444 -0.0747,-0.83386 -0.29606,-1.59001 -0.55765,-1.90522 -0.32914,-0.39659 0.71048,-1.7766 1.13891,-1.51182 0.12328,0.0762 -0.10239,0.4384 -0.50148,0.8049 l -0.72563,0.66637 0.84951,-0.59055 c 0.46723,-0.3248 0.78763,-0.69067 0.71199,-0.81305 -0.0756,-0.1224 -0.009,-0.22253 0.14786,-0.22253 0.35529,0 0.15522,1.22654 -0.28699,1.75937 -0.27726,0.33408 -0.21608,0.36345 0.42298,0.20306 0.59578,-0.14953 0.70447,-0.11271 0.53655,0.1818 -0.15815,0.27738 -0.13145,0.29657 0.10726,0.0771 0.24708,-0.22718 0.23891,-0.60372 -0.0367,-1.69153 -0.33485,-1.32166 -0.37969,-1.37412 -0.80818,-0.94563 -0.24951,0.24951 -0.45366,0.36487 -0.45366,0.25635 0,-0.10852 -0.29455,0.0794 -0.65455,0.41761 -0.72541,0.68148 -1.20819,0.23837 -0.78567,-0.72112 0.11214,-0.25466 0.21417,-0.58208 0.22674,-0.7276 0.0378,-0.43817 1.31194,-0.36207 1.66318,0.0993 0.27591,0.36243 0.32667,0.3676 0.3237,0.033 -0.005,-0.51094 -0.72343,-2.09198 -0.75191,-1.65365 -0.0511,0.78642 -0.5598,0.23446 -0.72268,-0.78413 -0.13713,-0.85761 -0.22121,-0.99498 -0.36437,-0.59531 -0.10236,0.28575 -0.086,0.78744 0.0363,1.11486 0.12233,0.32742 0.14307,0.59531 0.0461,0.59531 -0.097,0 0.0548,0.18743 0.33728,0.4165 0.28247,0.22907 0.36521,0.34138 0.18385,0.24958 -0.95757,-0.48472 -1.32228,-0.36588 -1.2563,0.4094 0.0374,0.43915 -0.0437,0.69996 -0.18957,0.60982 -0.14018,-0.0866 -0.1942,-0.38949 -0.12006,-0.67301 0.0741,-0.28352 -0.009,-0.5706 -0.18436,-0.63796 -0.17553,-0.0674 -0.34409,-0.4238 -0.37457,-0.79209 -0.0326,-0.39441 0.0544,-0.60177 0.21172,-0.50452 0.14692,0.0908 0.18726,0.29433 0.0897,0.45228 -0.10594,0.1714 -0.0543,0.21107 0.12797,0.0984 0.16912,-0.10451 0.30547,-0.0401 0.30547,0.14433 0,0.25909 0.0705,0.26256 0.3175,0.0156 0.23466,-0.23466 0.24005,-0.39495 0.0207,-0.61433 -0.16325,-0.16325 -0.23537,-0.49067 -0.16025,-0.7276 0.11807,-0.3724 0.0979,-0.377 -0.14891,-0.0339 -0.17937,0.24935 -0.287,0.27883 -0.28955,0.0793 -0.002,-0.17467 0.20431,-0.43894 0.45897,-0.58727 0.25697,-0.14967 0.31584,-0.27327 0.13229,-0.27773 -0.1819,-0.004 -0.33072,-0.19447 -0.33072,-0.42231 0,-1.01014 -0.5308,-1.51836 -1.07315,-1.02753 -0.61132,0.55323 -0.4516,0.91587 0.31508,0.71537 0.39203,-0.10251 0.52894,-0.0414 0.44842,0.20016 -0.1357,0.40714 -1.01326,0.59997 -1.01326,0.22265 0,-0.14123 -0.13746,-0.17183 -0.30546,-0.068 -0.18108,0.11191 -0.23396,0.0731 -0.12986,-0.0953 0.0966,-0.15628 0.0172,-0.44256 -0.17646,-0.6362 -0.33835,-0.33835 -0.44655,-0.55972 -0.44655,-0.91362 0,-0.0906 -0.17338,-0.0208 -0.38529,0.15507 -0.43938,0.36465 -1.03729,0.12034 -0.76877,-0.31413 0.10849,-0.17554 0.0537,-0.2107 -0.14083,-0.0905 -0.23291,0.14394 -0.24043,0.29057 -0.028,0.54649 0.18005,0.21695 0.19388,0.40935 0.0364,0.50666 -0.26719,0.16514 -0.24493,0.52033 0.0794,1.26661 0.10764,0.24769 0.11944,0.57375 0.0262,0.72457 -0.0989,0.16004 -0.01,0.21289 0.21438,0.12693 0.61653,-0.23659 0.77022,0.36279 0.17474,0.68148 -0.59595,0.31895 -1.06028,0.15736 -1.06028,-0.36898 0,-0.18633 -0.28304,-0.46775 -0.62898,-0.62537 -0.61968,-0.28234 -0.6253,-0.27222 -0.38059,0.68514 0.13662,0.53444 0.26091,1.1042 0.2762,1.26614 0.0153,0.16193 0.2461,0.23734 0.51289,0.16758 0.53445,-0.13977 0.70872,0.60997 0.18254,0.78536 -0.22627,0.0754 -0.22525,0.24522 0.004,0.67366 0.18517,0.34599 0.46211,0.51312 0.6994,0.42206 0.35061,-0.13454 0.51847,0.1685 0.42417,0.76577 -0.0172,0.10914 0.14726,0.19843 0.36554,0.19843 0.21828,0 0.40599,0.0893 0.41712,0.19844 0.0111,0.10914 0.0589,0.39857 0.1062,0.64317 0.0473,0.2446 -0.0809,0.50875 -0.28483,0.587 -0.20394,0.0783 -0.37079,0.0307 -0.37079,-0.10569 0,-0.13639 -0.19813,-0.17195 -0.44028,-0.079 -0.2743,0.10526 -0.37514,0.0636 -0.2675,-0.11062 0.095,-0.15376 0.006,-0.4179 -0.19762,-0.58698 -0.2283,-0.18947 -0.43083,-0.20964 -0.5279,-0.0526 -0.0866,0.14016 -0.008,0.30518 0.17488,0.3667 0.2581,0.0869 0.24845,0.21351 -0.0431,0.56669 -0.28564,0.34598 -0.29356,0.43543 -0.0331,0.37376 0.18834,-0.0446 0.46447,0.27611 0.61362,0.71268 0.14916,0.43656 0.38739,0.86957 0.52941,0.96224 0.14202,0.0927 0.273,0.62845 0.29106,1.19062 0.0181,0.56218 0.16958,1.11059 0.33672,1.2187 0.28336,0.18328 0.94842,2.42549 0.87466,2.94885 -0.0182,0.12925 0.0849,0.30795 0.22915,0.39709 0.14424,0.0892 0.32019,0.99543 0.39098,2.01396 0.0708,1.01853 0.36119,2.53648 0.64531,3.37322 0.42668,1.25656 0.45061,1.52136 0.13752,1.52136 -0.2979,0 -0.3404,0.24078 -0.19848,1.12448 0.19041,1.18573 0.38358,1.63653 1.61562,3.77031 0.73967,1.28103 0.76552,1.44744 0.81652,5.25614 0.029,2.16328 0.11827,3.99882 0.19844,4.079 0.0802,0.0802 0.14577,-0.16471 0.14577,-0.54418 0,-0.37947 0.11906,-0.76352 0.26458,-0.85346 0.40246,-0.24873 0.3177,1.08174 -0.0905,1.42051 -0.19529,0.16208 -0.40976,0.24 -0.4766,0.17317 -0.0668,-0.0668 -0.11541,1.35158 -0.10794,3.15205 0.007,1.80046 -0.0857,3.21219 -0.2071,3.13717 -0.12137,-0.075 -0.18646,-2.53421 -0.14465,-5.46486 0.0551,-3.86437 -0.014,-5.49203 -0.25166,-5.92377 -0.43749,-0.79482 -0.48166,-0.76149 -0.52518,0.39634 -0.058,1.54371 -1.55442,2.23838 -2.521,1.17033 -1.27357,-1.40729 0.41889,-3.73347 1.94337,-2.67104 0.30043,0.20937 0.20398,0.24064 -0.39688,0.1287 -0.43656,-0.0813 -0.97234,-0.0212 -1.19062,0.13357 -0.31604,0.22413 -0.28015,0.24878 0.17617,0.12106 0.31518,-0.0882 0.65145,-0.0335 0.74727,0.12152 0.0958,0.15505 0.0761,0.26485 -0.0439,0.24401 -1.51574,-0.2633 -1.94133,1.6667 -0.45006,2.04098 1.09537,0.27492 2.04555,-1.33537 1.12402,-1.90491 -0.20502,-0.12671 -0.16655,-0.25839 0.12277,-0.4203 0.32917,-0.18422 0.36554,-0.38254 0.16627,-0.90666 -0.32861,-0.86432 -0.32124,-0.97312 0.0504,-0.74344 0.19078,0.11791 0.23358,0.0725 0.11401,-0.12099 -0.1053,-0.17038 -0.28553,-0.25164 -0.40052,-0.18057 -0.11499,0.0711 -0.40273,-0.31394 -0.63943,-0.85558 -0.2367,-0.54164 -0.83108,-1.69917 -1.32086,-2.57229 -0.48977,-0.87313 -1.3222,-2.36141 -1.84982,-3.30729 -0.52763,-0.94589 -0.96203,-1.98769 -0.96533,-2.31511 -0.003,-0.32742 -0.12507,-0.59531 -0.27059,-0.59531 -0.14552,0 -0.26459,-0.11131 -0.26459,-0.24736 0,-0.13605 -0.12743,-0.58253 -0.28318,-0.99219 -0.15575,-0.40965 -0.2833,-0.80436 -0.28344,-0.87712 -1.4e-4,-0.0728 -0.15314,-0.31088 -0.34001,-0.52916 -0.18687,-0.21828 -0.6162,-0.96243 -0.95409,-1.65365 -0.33788,-0.69122 -0.72617,-1.25677 -0.86287,-1.25677 -0.1367,0 -0.18319,-0.2499 -0.10332,-0.55534 0.0799,-0.30543 0.0747,-0.48478 -0.0116,-0.39855 -0.15318,0.15318 -1.01995,-0.90093 -0.95612,-1.16278 0.0177,-0.0728 -0.19278,-0.44832 -0.46783,-0.83459 -0.27504,-0.38627 -0.50008,-0.81345 -0.50008,-0.9493 0,-0.44238 -2.37228,-5.50394 -2.38808,-5.09527 -0.008,0.21828 -0.23714,-0.0198 -0.50822,-0.52906 -0.27108,-0.50927 -0.446,-1.00179 -0.3887,-1.0945 0.0573,-0.0927 -0.0731,-0.3157 -0.28979,-0.49553 -0.29487,-0.24472 -0.39396,-0.24834 -0.39396,-0.0144 0,0.17193 -0.12718,0.23399 -0.28262,0.13792 -0.15544,-0.0961 -0.22017,-0.3374 -0.14385,-0.5363 0.0763,-0.19891 0.007,-0.44338 -0.15513,-0.54329 -0.18428,-0.11389 -0.21899,-0.0604 -0.0931,0.14335 0.15237,0.24654 0.0706,0.24363 -0.33888,-0.0121 -0.29686,-0.18539 -0.48907,-0.41906 -0.42714,-0.51927 0.0619,-0.1002 -0.30519,-0.50085 -0.81582,-0.89033 -0.51063,-0.38947 -0.86947,-0.80353 -0.79741,-0.92011 0.072,-0.11659 -0.0995,-0.42061 -0.38129,-0.67561 -2.07302,-1.87606 -3.0992,-4.63418 -1.72418,-4.63418 1.23661,0 1.17078,-0.23378 -0.40396,-1.4347 -1.08123,-0.82455 -1.29679,-1.1189 -1.15246,-1.57365 0.1477,-0.46536 0.11344,-0.50618 -0.20386,-0.24284 -0.31233,0.25921 -0.47054,0.15102 -0.87358,-0.59739 -0.57189,-1.06193 -0.6587,-1.08594 -1.44873,-0.40075 -0.59166,0.51314 -0.59166,0.51318 -0.0511,0.85077 0.51284,0.32027 0.51737,0.3642 0.0882,0.85524 -0.27884,0.31903 -0.30985,0.43373 -0.0808,0.29897 0.25855,-0.15213 0.31078,-0.12023 0.17168,0.10484 -0.10997,0.17793 -0.37267,0.25722 -0.58379,0.17621 -0.21436,-0.0823 -0.31248,-0.0318 -0.22221,0.11425 0.0889,0.14385 0.12486,0.26994 0.0799,0.2802 -0.89644,0.20442 -2.60994,0.18756 -2.11528,-0.0208 0.33677,-0.14186 0.53892,-0.37668 0.44922,-0.52181 -0.10034,-0.16235 -0.42895,-0.0897 -0.85403,0.18883 -0.38001,0.249 -1.23701,0.51998 -1.90443,0.60218 l -1.21349,0.14945 1.45521,0.75174 c 2.30448,1.19045 2.80878,1.64222 3.79406,3.39884 0.50922,0.90786 1.19969,1.76971 1.53439,1.91523 1.16345,0.50585 2.16788,2.34166 2.27925,4.16582 0.0952,1.55953 0.73192,3.37481 1.18371,3.37481 0.11243,0 0.18397,0.0893 0.15897,0.19844 -0.025,0.10914 0.44231,1.18567 1.03846,2.3923 0.77787,1.57444 1.1373,2.69244 1.27301,3.95972 0.1527,1.42591 0.31315,1.86344 0.83339,2.27266 0.91977,0.7235 1.26324,1.74429 0.75717,2.25036 -0.35493,0.35494 -0.45944,0.321 -0.95611,-0.31041 -0.64404,-0.81875 -1.57755,-0.95471 -1.57755,-0.22976 0,0.52052 1.62084,1.02392 3.51129,1.09053 1.27068,0.0448 2.28023,0.42732 2.47634,0.93838 0.0843,0.21963 0.24262,0.34408 0.35187,0.27656 0.43214,-0.26708 -0.0783,1.18244 -0.57442,1.63132 -0.39669,0.3589 -0.88684,0.46309 -1.95656,0.41594 -1.87243,-0.0825 -1.85198,0.35905 0.0238,0.5146 2.77811,0.23039 3.68526,3.91394 0.96389,3.91394 -0.63892,0 -0.69653,0.091 -0.71162,1.12448 -0.0671,4.59551 -1.76256,18.03193 -2.31872,18.37566 -0.16199,0.10011 -0.19365,-0.0809 -0.0831,-0.47491 z m 24.6845,-7.38882 c 0.11123,0.01 0.24109,-0.32224 0.28857,-0.73804 0.0918,-0.80347 -0.56976,-1.10574 -0.84577,-0.38646 -0.078,0.20325 -0.26947,0.29065 -0.4255,0.19422 -0.18684,-0.11547 -0.12115,-0.36959 0.19243,-0.74437 0.26187,-0.31298 0.091,-0.21935 -0.37964,0.20806 -1.07846,0.97934 -1.13463,0.51511 -0.062,-0.51253 0.43657,-0.41825 0.79375,-0.6602 0.79375,-0.53765 0,0.12253 0.21802,0.0255 0.48449,-0.21566 0.26647,-0.24116 0.56413,-0.37867 0.66146,-0.3056 0.0973,0.0731 0.11929,0.0553 0.0488,-0.0394 -0.0705,-0.0948 0.0498,-0.30311 0.26738,-0.46302 0.40831,-0.30011 0.0225,-2.01054 -0.45349,-2.01054 -0.10905,0 -0.12351,-0.20836 -0.0321,-0.46302 0.0914,-0.25466 0.0839,-0.38984 -0.0166,-0.30038 -0.32333,0.28775 -0.42781,1.32199 -0.11395,1.12802 0.19181,-0.11855 0.24454,0.0545 0.15668,0.51409 -0.0728,0.38103 -0.0306,0.62982 0.0939,0.55288 0.1245,-0.077 0.22636,-0.0208 0.22636,0.12468 0,0.39796 -0.46876,0.6076 -0.66146,0.29581 -0.0929,-0.15026 -0.2877,-0.19976 -0.43297,-0.10998 -0.14525,0.0898 -0.32951,-0.0869 -0.40945,-0.39256 -0.12028,-0.45992 -0.6128,-0.81769 -0.6128,-0.44514 0,0.0609 -0.0802,0.31966 -0.17822,0.5751 -0.13641,0.35548 -0.0763,0.42535 0.25611,0.29778 0.23888,-0.0917 0.50591,-0.0509 0.59338,0.0907 0.0875,0.14153 0.25004,0.2011 0.36125,0.13237 0.11121,-0.0687 0.20221,0.0524 0.20221,0.26909 0,0.27118 -0.0853,0.3088 -0.27341,0.12065 -0.38431,-0.38432 -0.69673,-0.33983 -0.69673,0.0992 0,0.20494 -0.56152,1.06814 -1.24783,1.91823 -0.6863,0.85008 -1.0623,1.39781 -0.83555,1.21717 0.22675,-0.18064 0.49061,-0.25009 0.58637,-0.15434 0.0958,0.0958 0.17409,-0.0138 0.17409,-0.24347 0,-0.3677 0.14949,-0.39981 1.02458,-0.22004 0.0542,0.0111 -0.0553,0.20555 -0.24322,0.43205 -0.28259,0.34049 -0.27674,0.39776 0.0337,0.33073 0.23649,-0.0511 0.35854,0.11483 0.32966,0.44809 -0.0429,0.49544 -0.0143,0.49049 0.44869,-0.0778 0.27199,-0.33381 0.58555,-0.59884 0.69679,-0.58897 z m -31.06166,-7.45804 c 1.80099,-1.19579 3.86681,-3.79749 3.37955,-4.25622 -0.29665,-0.27927 -0.78582,0.10743 -0.50848,0.40197 0.20938,0.22237 -3.58396,3.64463 -4.03983,3.64463 -0.15105,0 0.27666,-0.5592 0.95047,-1.24267 0.67382,-0.68347 1.17285,-1.37887 1.10897,-1.54535 -0.0639,-0.16647 0.003,-0.47047 0.14892,-0.67555 0.204,-0.28698 0.22744,-0.25759 0.10175,0.12756 -0.13827,0.42372 -0.10153,0.44917 0.23963,0.16604 0.57318,-0.4757 0.52863,-1.16985 -0.0601,-0.93627 -0.25466,0.10104 -1.02857,0.32055 -1.71979,0.4878 -0.86321,0.20886 -1.25677,0.43963 -1.25677,0.73691 0,0.26217 -0.49553,0.65136 -1.25677,0.98709 -0.69123,0.30485 -1.05815,0.55815 -0.81539,0.5629 0.24276,0.005 0.65947,0.0794 0.92604,0.16588 0.35142,0.11402 0.38883,0.0885 0.13607,-0.0928 -0.26265,-0.1884 -0.14193,-0.33564 0.48966,-0.59726 0.46104,-0.19097 1.24298,-0.62187 1.73765,-0.95756 0.49467,-0.33569 0.8994,-0.49488 0.8994,-0.35374 0,0.14113 -0.12609,0.25661 -0.2802,0.25661 -0.1541,0 -0.21495,0.10557 -0.1352,0.2346 0.21627,0.34994 -0.51512,0.85617 -0.97951,0.67797 -0.222,-0.0852 -0.4814,-0.0291 -0.57644,0.12469 -0.0992,0.1605 -0.0221,0.22176 0.18102,0.14382 0.22115,-0.0849 0.36976,0.0757 0.39632,0.42829 0.0302,0.40106 -0.18275,0.64908 -0.73696,0.85827 -0.832,0.31404 -1.09245,0.77726 -0.31642,0.56277 0.25466,-0.0704 0.10583,0.047 -0.33073,0.26096 -1.54614,0.75759 -3.30729,0.17902 -3.30729,-1.08651 0,-0.24254 -0.0704,-0.37057 -0.15645,-0.28453 -1.81664,1.81664 3.26375,2.87098 5.78087,1.1997 z m 30.5025,0.867 c -0.24995,-0.40442 0.42316,-0.64643 0.69707,-0.25062 0.41628,0.60154 -0.0712,-0.87875 -0.51086,-1.55133 -0.21323,-0.32617 -0.49372,-0.5275 -0.62332,-0.44741 -0.12961,0.0801 -0.23565,0.0195 -0.23565,-0.13456 0,-0.15411 0.16745,-0.2802 0.37211,-0.2802 0.25434,0 0.3234,-0.18623 0.21821,-0.58849 -0.10789,-0.41257 -0.19085,-0.47189 -0.27754,-0.19843 -0.068,0.21453 -0.34695,0.70911 -0.61988,1.09908 -0.2809,0.40137 -0.38727,0.77636 -0.24514,0.86421 0.1381,0.0854 0.32267,0.0394 0.41014,-0.10216 0.0875,-0.14154 0.33897,-0.1883 0.55887,-0.10392 0.35234,0.13521 0.35358,0.20453 0.0104,0.58376 -0.51596,0.57012 -0.54597,0.85366 -0.11902,1.1243 0.45992,0.29154 0.55139,0.28797 0.36462,-0.0142 z m -33.28265,-1.12705 c -0.0364,-0.17326 0.17198,-0.36466 0.46302,-0.42535 0.85051,-0.17733 1.28842,-0.62199 0.87242,-0.88587 -0.45859,-0.29091 -0.80709,-0.28366 -0.62377,0.013 0.26709,0.43216 -1.27262,0.79299 -1.65178,0.38709 -0.41289,-0.442 -1.375,-0.47798 -1.375,-0.0514 0,0.17044 0.19705,0.52763 0.43789,0.79375 0.48717,0.53833 1.98305,0.67287 1.87722,0.16884 z m -3.60024,-3.61668 c -0.64945,-3.0883 0.61,-9.50887 2.34251,-11.94196 0.46839,-0.65779 0.49451,-0.79509 0.15126,-0.79509 -0.22819,0 -0.41489,0.11906 -0.41489,0.26458 0,0.14552 -0.0893,0.24619 -0.19843,0.22372 -0.19984,-0.0411 -1.97466,0.65799 -2.71198,1.0683 -0.21828,0.12147 -0.41176,0.35671 -0.42995,0.52275 -0.0182,0.16604 -0.0628,0.36143 -0.0992,0.43419 -0.0364,0.0728 -0.0817,0.22159 -0.10077,0.33073 -0.019,0.10914 -0.30181,0.62921 -0.62838,1.15571 -0.32657,0.5265 -0.60214,1.24087 -0.61236,1.5875 -0.0102,0.34662 -0.13147,0.86835 -0.26942,1.15939 -0.17938,0.37845 -0.211,0.15517 -0.11103,-0.78397 0.0769,-0.72222 0.3748,-1.76402 0.66204,-2.3151 0.28724,-0.55108 0.46045,-1.00197 0.38491,-1.00197 -0.36735,0 0.50889,-1.08658 1.21042,-1.50098 l 0.79618,-0.47032 -0.99652,-0.29392 c -0.9592,-0.2829 -0.92304,-0.29553 0.96559,-0.33705 1.93141,-0.0425 2.38801,-0.14726 2.06206,-0.47321 -0.39146,-0.39146 -4.23949,0.2878 -4.30755,0.76038 -0.0367,0.25466 0.0716,0.4668 0.24064,0.47143 0.16902,0.005 0.087,0.1753 -0.1822,0.37927 -0.28686,0.21732 -0.40685,0.50461 -0.28985,0.69393 0.12759,0.20644 0.0894,0.25492 -0.1058,0.13428 -0.18282,-0.11299 -0.30546,-0.0169 -0.30546,0.23931 0,0.23981 0.12599,0.35024 0.28644,0.25108 0.15754,-0.0974 0.11434,0.1635 -0.096,0.5797 -0.21034,0.4162 -0.4489,0.93532 -0.53013,1.1536 -0.0812,0.21828 -0.15711,0.003 -0.1686,-0.47864 -0.0123,-0.51398 0.0871,-0.80876 0.24067,-0.71386 0.15393,0.0951 0.19181,-0.0201 0.0921,-0.28001 -0.23232,-0.60541 -0.78726,0.41348 -1.01818,1.86939 -0.28108,1.77223 -0.4172,2.10865 -0.68324,1.6886 -0.15524,-0.24512 -0.23413,-0.0168 -0.23927,0.69265 -0.01,1.35041 -0.25883,2.28401 -0.55968,2.09807 -0.12898,-0.0797 -0.25197,0.0705 -0.27331,0.33371 -0.0213,0.26324 -0.12927,-0.41434 -0.23984,-1.50574 -0.24812,-2.44903 -0.12684,-3.08478 0.49476,-2.59362 0.40199,0.31763 0.40432,0.29278 0.0297,-0.3168 -0.40553,-0.65977 -0.40037,-1.5875 0.009,-1.5875 0.11868,0 0.19925,-0.20836 0.17904,-0.46302 -0.0204,-0.25705 0.11912,-0.43068 0.31364,-0.39032 0.19272,0.04 0.28163,-0.0386 0.19758,-0.17456 -0.29586,-0.47872 0.16959,-1.13581 0.70531,-0.99572 0.28537,0.0746 0.44302,0.0598 0.35034,-0.0328 -0.0927,-0.0927 0.22296,-0.38756 0.70143,-0.65527 l 0.86995,-0.48675 -0.92604,0.12487 c -1.50189,0.20252 -2.14266,-0.19794 -0.89189,-0.55738 1.4847,-0.42667 6.34704,-0.71539 6.54885,-0.38887 0.1908,0.30872 1.2222,0.10252 1.2222,-0.24434 0,-0.35742 -0.73489,-0.27801 -0.85848,0.0928 -0.0599,0.17958 -0.0996,-0.28502 -0.0882,-1.03244 0.0122,-0.8004 0.11164,-1.23365 0.24203,-1.0541 0.13334,0.1836 0.1695,0.0681 0.0909,-0.29048 -0.10275,-0.46879 -0.009,-0.60092 0.44007,-0.62168 0.51268,-0.0237 0.50347,-0.0449 -0.0909,-0.20929 -0.37214,-0.1029 -0.69437,-0.40962 -0.7367,-0.70123 -0.16756,-1.15428 -5.61737,-0.30074 -6.01165,0.94154 -0.0916,0.28849 -0.27752,0.52452 -0.41323,0.52452 -0.13571,0 -0.24675,0.17156 -0.24675,0.38126 0,0.20969 -0.13746,0.46621 -0.30547,0.57004 -0.18925,0.11697 -0.23364,0.0726 -0.11667,-0.11667 0.21556,-0.34879 0.11792,-0.37518 -0.50445,-0.13635 -0.34451,0.1322 -0.36518,0.21578 -0.0947,0.38293 0.2705,0.16718 0.2262,0.34675 -0.20304,0.82308 -0.85724,0.95129 -0.99375,1.29019 -0.44304,1.09994 0.26222,-0.0906 0.0691,0.1471 -0.42909,0.52818 -0.50798,0.38855 -1.05364,1.13044 -1.24231,1.68909 -0.32075,0.9497 -0.31552,0.9715 0.1121,0.46704 0.68755,-0.8111 2.17285,-1.98438 2.51211,-1.98438 0.16673,0 0.0369,0.18647 -0.28843,0.41436 -0.32537,0.2279 -0.8452,0.91151 -1.15519,1.51914 -0.50871,0.99714 -0.51575,1.06632 -0.0723,0.71012 0.40041,-0.32162 0.37516,-0.1988 -0.13644,0.66367 -1.08825,1.83464 -1.38328,2.51011 -1.24374,2.84749 0.0808,0.19546 0.20842,0.0875 0.31642,-0.2678 0.52126,-1.71486 0.92712,-0.0917 0.87659,3.50573 -0.0471,3.3572 0.69823,5.07405 2.41765,5.56861 0.65229,0.18762 0.65468,0.18267 0.17252,-0.3574 -0.26892,-0.30121 -0.42299,-0.65438 -0.34237,-0.78481 0.0806,-0.13044 -0.0215,-0.23716 -0.22703,-0.23716 -0.20548,0 -0.31228,0.0992 -0.23733,0.22048 0.075,0.12127 0.0172,0.22049 -0.12831,0.22049 -0.39796,0 -0.6076,-0.46876 -0.29582,-0.66146 0.15027,-0.0929 0.20115,-0.28547 0.11306,-0.428 -0.1008,-0.1631 -0.29854,-0.14432 -0.53349,0.0507 -0.23651,0.19628 -0.37332,0.20892 -0.37332,0.0345 0,-0.15143 -0.0741,-0.46854 -0.16475,-0.70467 -0.0906,-0.23614 -0.0468,-0.3947 0.0973,-0.35237 0.14413,0.0423 0.50567,-0.22069 0.80343,-0.58449 0.58134,-0.71028 0.85568,-0.64581 0.92063,0.21634 0.0224,0.29741 0.15383,0.47085 0.29207,0.38541 0.14436,-0.0892 0.18779,0.0876 0.10204,0.41557 -0.0966,0.36946 -0.0488,0.50879 0.13558,0.39485 0.18191,-0.11243 0.2219,-0.012 0.11065,0.27796 -0.11742,0.30597 -0.0743,0.39224 0.13229,0.26458 0.20656,-0.12766 0.2497,-0.0414 0.13229,0.26458 -0.11277,0.29387 -0.072,0.39082 0.11567,0.27486 0.19354,-0.11961 0.23058,0.008 0.11143,0.38313 -0.14377,0.45301 -0.0691,0.5623 0.38415,0.5623 0.30943,0 0.50003,0.10126 0.42354,0.22501 -0.0765,0.12376 0.18438,0.21126 0.5797,0.19445 0.39532,-0.0168 0.95689,0.12321 1.24793,0.31117 0.65126,0.4206 0.87075,-1.26569 0.43466,-3.33941 z m -2.34497,1.79542 c -0.62436,-0.23604 -0.76782,-0.65131 -0.95295,-2.75852 -0.093,-1.05804 -0.0615,-1.20372 0.15718,-0.7276 0.34511,0.75144 0.8417,0.75891 1.35893,0.0204 0.30415,-0.43423 0.43157,-0.48277 0.52087,-0.19843 0.065,0.20703 0.2453,0.77406 0.40062,1.26006 0.45829,1.43403 -0.39512,2.81593 -1.48465,2.40404 z m 0.87026,-0.53914 c 0.1,-0.16179 0.0177,-0.40898 -0.18282,-0.54931 -0.28199,-0.19731 -0.28967,-0.28556 -0.0339,-0.38934 0.44888,-0.18214 0.41673,-0.52965 -0.0661,-0.71495 -0.57942,-0.22235 -1.19381,0.086 -1.16973,0.58701 0.0132,0.27452 0.0701,0.31283 0.15434,0.10399 0.0734,-0.18191 0.24259,-0.33073 0.37599,-0.33073 0.35541,0 0.29634,0.73171 -0.0689,0.85346 -0.40039,0.13346 -0.0374,0.73404 0.44372,0.73404 0.20111,0 0.44746,-0.13238 0.54745,-0.29417 z m -1.3086,-4.3465 c -0.23108,-0.60218 -0.2066,-2.36841 0.0295,-2.13226 0.10694,0.10694 0.32169,-0.37923 0.47723,-1.08038 0.15553,-0.70115 0.40921,-1.25039 0.56372,-1.22054 0.15451,0.0299 0.60203,-0.53569 0.99449,-1.25677 0.39246,-0.72108 0.76767,-1.31105 0.8338,-1.31105 0.0661,0 -0.20851,0.62508 -0.61031,1.38906 -0.4018,0.76399 -0.77092,1.47836 -0.82026,1.5875 -0.0493,0.10914 0.0892,0.19844 0.30789,0.19844 0.48225,0 0.10868,1.69229 -0.51018,2.31115 -0.35706,0.35706 -0.42009,0.53711 -0.48005,1.37134 -0.0392,0.54532 -0.59289,0.64643 -0.78588,0.14351 z m -1.62391,-11.2223 c 0.48715,-0.51594 1.16354,-1.23983 1.5031,-1.60864 0.33956,-0.36881 0.52808,-0.55335 0.41894,-0.4101 -0.45788,0.60098 0.3796,1.11734 1.5875,0.97879 0.32742,-0.0376 0.59531,0.0593 0.59531,0.21523 0,0.15594 -0.29063,0.28352 -0.64584,0.28352 -0.35521,0 -0.73193,0.1393 -0.83715,0.30955 -0.13044,0.21104 -0.0443,0.25314 0.2706,0.13229 0.25406,-0.0975 0.69031,-0.17726 0.96945,-0.17726 0.36497,0 0.50753,-0.18579 0.50753,-0.66146 0,-0.79958 0.11872,-0.81796 0.8547,-0.13229 0.31735,0.29566 0.42233,0.52917 0.23791,0.52917 -0.18155,0 -0.26678,0.10244 -0.1894,0.22765 0.16875,0.27304 -2.95418,0.63793 -3.35257,0.39172 -0.15303,-0.0946 -0.20224,-0.049 -0.10936,0.10129 0.16467,0.26644 -0.93214,0.63875 -2.11938,0.71941 -0.52679,0.0358 -0.49991,-0.0425 0.30866,-0.89887 z m 7.07186,16.11628 c 1.18246,-0.32841 1.34384,-0.54273 1.01903,-1.35336 -0.22186,-0.55369 -0.42719,-0.27875 -0.30238,0.4049 0.0232,0.127 -0.15105,0.15676 -0.38719,0.0661 -0.23613,-0.0906 -0.51574,-0.16475 -0.62135,-0.16475 -0.10562,0 -0.40215,-0.47625 -0.65897,-1.05834 -0.76323,-1.7299 -1.48893,-0.34658 -0.86751,1.65365 0.25093,0.80769 0.4018,0.84517 1.81837,0.45175 z m -0.45775,-3.41481 c 0.0924,-0.29109 0.31896,-0.45608 0.52023,-0.37884 0.19612,0.0753 0.43365,0.0121 0.52786,-0.14032 0.22012,-0.35617 -0.33426,-1.40738 -0.64192,-1.21723 -0.12817,0.0792 -0.31918,0.005 -0.42448,-0.16576 -0.11867,-0.19201 -0.0768,-0.23894 0.11002,-0.12346 0.25225,0.1559 0.17435,-1.29616 -0.0876,-1.63214 -0.5548,-0.71171 -0.83853,0.42895 -0.39624,1.59297 0.55082,1.44964 0.36109,2.65845 -0.21783,1.38786 -0.17275,-0.37914 -0.43356,-0.6155 -0.57958,-0.52526 -0.16366,0.10115 -0.11249,0.31707 0.13342,0.56299 0.2194,0.2194 0.39891,0.56899 0.39891,0.77688 0,0.55742 0.46765,0.45944 0.65717,-0.13769 z m 10.19074,-0.27809 c 0,-0.61997 0.40482,-0.70568 0.62485,-0.13229 0.0838,0.21828 0.28783,0.39688 0.45349,0.39688 0.16566,0 0.23266,-0.1786 0.1489,-0.39688 -0.0838,-0.21828 -0.037,-0.39687 0.10398,-0.39687 0.14096,0 0.25628,0.17859 0.25628,0.39687 0,0.21828 0.15798,0.39688 0.35105,0.39688 0.21872,0 0.33218,-0.27429 0.30098,-0.72761 -0.0308,-0.44764 -0.007,-0.50599 0.0615,-0.15165 0.23981,1.23757 1.61139,1.44405 2.20645,0.33217 0.58469,-1.09251 -1.75299,-2.60165 -2.40238,-1.55091 -0.40194,0.65035 -4.08165,0.41409 -5.86694,-0.3767 -1.25979,-0.55802 -1.19374,-0.58456 -1.16104,0.46668 0.0382,1.22667 1.25647,2.27262 1.89887,1.63021 0.57097,-0.57097 0.88538,-0.52148 0.7194,0.11322 -0.12363,0.47274 -0.008,0.52917 1.0831,0.52917 1.04509,0 1.22148,-0.0764 1.22148,-0.52917 z m 15.04348,-2.76552 c -0.50668,-2.20575 -0.53616,-2.6044 -0.20974,-2.83588 0.31261,-0.2217 0.30233,-0.2447 -0.0581,-0.13004 -0.43795,0.13933 -1.03925,-1.9193 -1.11999,-3.83444 -0.0163,-0.38628 -0.13616,-0.63648 -0.2664,-0.55598 -0.13024,0.0805 -0.17721,-0.1654 -0.10437,-0.54643 0.0728,-0.38103 0.0341,-0.63198 -0.0862,-0.55767 -0.12024,0.0743 -0.29294,-0.19719 -0.38377,-0.60332 -0.0908,-0.40613 -0.34514,-1.23529 -0.56511,-1.84257 -0.21997,-0.60728 -0.30933,-1.25076 -0.19859,-1.42995 0.11583,-0.1874 0.092,-0.25821 -0.056,-0.16671 -0.14157,0.0875 -0.41153,-0.28106 -0.5999,-0.81901 -0.18836,-0.53796 -1.09307,-2.58545 -2.01046,-4.54998 -3.65091,-7.81821 -4.09316,-8.7871 -4.09316,-8.96737 0,-0.10296 -0.14167,-0.32888 -0.31482,-0.50203 -0.17315,-0.17315 -0.33709,-0.46486 -0.36429,-0.64823 -0.25329,-1.70697 -5.30478,-7.67434 -5.85708,-6.91902 -0.45416,0.62109 -0.43408,1.28583 0.051,1.6884 0.21667,0.17983 0.32549,0.43775 0.2418,0.57316 -0.0837,0.1354 -0.009,0.41897 0.1665,0.63015 0.25202,0.30366 0.22784,0.52258 -0.11561,1.04674 -0.47458,0.72431 -0.95124,0.87378 -0.95124,0.29831 0,-0.20046 -0.17028,-0.5058 -0.3784,-0.67852 -0.20812,-0.17272 -0.33583,-0.53507 -0.2838,-0.80522 0.0522,-0.27085 -0.0918,-0.56269 -0.32093,-0.65062 -0.50601,-0.19417 -0.4651,-0.24769 -0.79781,1.04363 -0.14998,0.58208 -0.34455,1.23693 -0.43239,1.45521 -0.10937,0.27178 0.33722,0.76855 1.41689,1.57608 1.62302,1.21391 1.67366,1.58657 0.21674,1.59487 -1.31328,0.007 -0.50145,2.01948 1.83322,4.54338 0.3576,0.38658 0.6353,0.79584 0.6171,0.90946 -0.0182,0.11362 0.15158,0.23369 0.37728,0.26681 0.64267,0.0943 3.10718,2.69898 2.88853,3.05278 -0.12798,0.20707 -0.0754,0.23767 0.15932,0.0926 0.247,-0.15266 0.30533,-0.0991 0.19765,0.18155 -0.084,0.21897 -0.0335,0.56592 0.11229,0.771 0.20989,0.29528 0.23406,0.27652 0.11611,-0.0901 -0.29626,-0.92098 0.0726,-0.42408 1.1716,1.57841 0.61622,1.12278 1.2846,2.20562 1.48529,2.40631 0.20069,0.2007 0.52852,0.68132 0.72851,1.06806 0.19999,0.38674 0.61113,0.92715 0.91364,1.20092 0.30251,0.27376 0.4875,0.59891 0.41109,0.72254 -0.0764,0.12363 0.32514,0.91139 0.89233,1.75058 0.5672,0.83918 1.29282,2.22945 1.6125,3.08947 0.31968,0.86003 0.81432,1.89101 1.09919,2.29109 0.28488,0.40007 0.44994,0.90464 0.36682,1.12127 -0.0831,0.21663 0.079,0.6144 0.36039,0.88392 0.28134,0.26952 0.72974,0.96629 0.99643,1.54837 1.42616,3.11275 1.88547,3.01086 1.13597,-0.25198 z m -10.19453,-24.31806 c -0.41135,-0.34389 -1.03153,-0.7141 -1.37818,-0.82268 -0.69867,-0.21885 -0.31842,-0.65706 0.57676,-0.66469 0.56495,-0.005 1.68511,1.12977 1.68511,1.7068 0,0.51995 10e-4,0.52021 -0.88369,-0.21943 z m -4.31978,-0.64426 c -1.43442,-1.55024 -1.47272,-2.881 -0.0568,-1.97507 1.2268,0.78495 1.44428,1.07219 0.91632,1.21019 -0.44006,0.11503 -0.44003,0.12242 4.2e-4,0.15161 0.50766,0.0337 0.61901,0.43222 0.19412,0.69482 -0.14789,0.0914 -0.2004,0.27703 -0.11668,0.41249 0.32052,0.51861 -0.30578,0.18851 -0.93734,-0.49404 z m 2.51354,-2.29416 c -0.43656,-0.35785 -1.05049,-0.65491 -1.36429,-0.66015 -0.65026,-0.0108 -0.59327,-0.83881 0.11405,-1.65692 0.56967,-0.6589 0.9597,-0.27408 0.47381,0.46748 -0.22457,0.34274 -0.30406,0.68759 -0.17665,0.76634 0.27592,0.17053 0.88544,-0.4919 0.66003,-0.71731 -0.0859,-0.0859 0.0937,-0.0908 0.39917,-0.0109 0.69534,0.18183 0.69363,0.28358 -0.0144,0.85689 -0.44999,0.36438 -0.48023,0.46134 -0.14393,0.46134 0.23419,0 0.36447,-0.0992 0.28952,-0.22049 -0.37262,-0.60292 0.40214,-0.11564 0.91147,0.57326 0.76786,1.0386 0.0535,1.12597 -1.14879,0.1405 z m -3.49916,-1.52998 c 0.0641,-0.18167 0.30266,-0.31534 0.53015,-0.29705 0.25556,0.0206 0.35838,-0.11069 0.26907,-0.34344 -0.0795,-0.20718 0.067,-0.5314 0.32559,-0.72048 0.32754,-0.2395 0.37773,-0.40089 0.16547,-0.53207 -0.38242,-0.23635 -0.83383,0.0276 -0.83383,0.48762 0,0.51354 -0.70352,1.03828 -0.92077,0.68677 -0.0958,-0.15496 -0.31473,-0.20108 -0.48657,-0.10248 -0.17185,0.0986 -0.0166,-0.16735 0.34505,-0.59099 1.00335,-1.17545 1.16153,-1.33809 0.97245,-0.99985 -0.18656,0.33372 1.06839,0.35421 1.58652,0.0259 0.21042,-0.13333 0.2594,-0.0155 0.15676,0.37698 -0.11531,0.44096 -0.0645,0.51982 0.22312,0.34645 0.29496,-0.17778 0.28987,-0.11761 -0.0245,0.28936 -0.77286,1.00057 -2.55001,2.05775 -2.30853,1.37328 z m -4.93443,30.54716 c -0.0718,-0.11609 -0.0278,-0.37712 0.0976,-0.58008 0.14941,-0.24175 0.075,-0.49509 -0.21589,-0.73459 -0.24418,-0.20107 -0.29513,-0.2902 -0.11323,-0.19805 0.1819,0.0921 0.33073,0.0414 0.33073,-0.11267 0,-0.15411 -0.23138,-0.2802 -0.51417,-0.2802 -0.28279,0 -0.69951,-0.26462 -0.92604,-0.58804 -0.22653,-0.32342 -0.41452,-0.47225 -0.41776,-0.33073 -0.003,0.14152 -0.23871,-0.0403 -0.52328,-0.40415 -0.39621,-0.50652 -0.51878,-0.55842 -0.52329,-0.22158 -0.005,0.39373 2.50322,3.66116 2.81076,3.66116 0.0687,0 0.0663,-0.095 -0.005,-0.21107 z m 1.68484,-2.17368 c -0.20422,-0.3816 -0.20328,-0.663 0.003,-0.99219 0.25183,-0.40125 0.26888,-0.38756 0.13449,0.10792 -0.26347,0.97138 0.53592,1.49524 1.95714,1.28254 1.53028,-0.22901 1.59354,-0.27243 1.41142,-0.96883 -0.11895,-0.45489 -0.0591,-0.53864 0.28943,-0.40491 0.26022,0.0999 0.44227,0.0371 0.44644,-0.15381 0.004,-0.17733 0.21004,0.005 0.45816,0.40518 0.24811,0.40018 0.60314,0.7276 0.78895,0.7276 0.26361,0 0.27004,-0.10855 0.0293,-0.49411 -0.42139,-0.67477 -0.10533,-1.35852 0.62653,-1.35538 0.41648,0.002 0.77689,0.30456 1.16254,0.97663 0.60917,1.06161 1.318,0.60484 0.99256,-0.63961 -0.24884,-0.95159 -4.32961,-1.75571 -4.32961,-0.85316 0,0.15411 0.13746,0.19524 0.30546,0.0914 0.19533,-0.12072 0.23338,-0.0721 0.10553,0.13472 -0.10997,0.17792 -0.34752,0.26686 -0.5279,0.19764 -0.18037,-0.0692 -0.48512,-0.0287 -0.67721,0.09 -0.46235,0.28575 -1.45462,-0.0958 -1.45568,-0.55969 -9.8e-4,-0.4232 -3.83653,-0.52509 -4.76166,-0.1265 -0.49995,0.21541 -0.50266,0.20727 -0.049,-0.14731 0.44835,-0.35044 0.4159,-0.40593 -0.49004,-0.83794 -0.53361,-0.25446 -1.03145,-0.69691 -1.10632,-0.98322 -0.0749,-0.28631 -0.22499,-0.52056 -0.33359,-0.52056 -0.26606,0 0.51354,2.3792 0.99703,3.04271 0.35265,0.48396 0.37099,0.48642 0.21469,0.0287 -0.14483,-0.42408 -0.10942,-0.44941 0.23202,-0.16604 0.22162,0.18392 0.40294,0.5395 0.40294,0.79017 0,0.78693 1.60999,1.77895 2.98587,1.8398 0.39268,0.0174 0.42426,-0.0689 0.18725,-0.51178 z m 6.99966,-0.90628 c -0.49717,-0.75878 -1.25084,-0.81103 -1.38849,-0.0963 -0.0971,0.5044 1.27086,1.35831 1.62523,1.01447 0.12269,-0.11904 0.0161,-0.53223 -0.23674,-0.9182 z m -20.0466,-3.10844 c 0.22036,-0.24549 0.32872,-0.56274 0.2408,-0.70501 -0.0879,-0.14226 -0.0698,-0.29973 0.0402,-0.34994 0.40419,-0.18439 1.77359,-1.83436 1.39027,-1.67511 -0.21804,0.0906 -0.75362,0.6372 -1.19018,1.21472 -0.43656,0.57752 -0.94152,1.21583 -1.12212,1.41846 -0.21534,0.2416 -0.26188,0.67172 -0.13521,1.24957 l 0.19316,0.88116 0.0912,-0.79375 c 0.0502,-0.43656 0.27149,-0.99461 0.49186,-1.2401 z m 14.72596,0.26221 c 0.405,-0.405 0.37495,-0.4491 -0.42211,-0.61952 -0.47199,-0.10092 -1.00699,-0.30338 -1.18889,-0.44992 -0.22648,-0.18244 -0.4583,-0.16055 -0.73544,0.0695 -0.30341,0.25181 -0.56218,0.26413 -1.03387,0.0492 -0.65952,-0.3005 -1.21151,0.61815 -0.78555,1.30737 0.27782,0.44952 3.64825,0.16101 4.16586,-0.3566 z m -4.66422,-0.21274 c -0.0761,-0.29104 -0.0342,-0.52916 0.0931,-0.52916 0.12733,0 0.15548,-0.19813 0.0625,-0.44028 -0.10526,-0.27431 -0.0636,-0.37515 0.11062,-0.2675 0.15376,0.095 0.42561,-0.003 0.60411,-0.21827 0.40636,-0.48963 0.81791,-0.26802 0.62993,0.33921 -0.13113,0.42358 -0.12105,0.42409 0.14804,0.008 0.28312,-0.4383 1.26509,-0.45206 1.58383,-0.0222 0.23237,0.31338 0.8132,0.36973 0.8132,0.0789 0,-0.16766 0.23771,-0.16766 0.67868,0 0.37328,0.14192 0.95995,0.25803 1.30372,0.25803 0.34927,0 0.85147,0.28787 1.13827,0.65249 0.65831,0.8369 0.9447,0.56641 0.43791,-0.41361 -0.49291,-0.95318 -1.13848,-1.2972 -2.43426,-1.2972 -1.35141,0 -4.09995,-0.50708 -4.41838,-0.81516 -0.3506,-0.33918 0.21834,-0.29618 2.10343,0.15899 0.87313,0.21083 1.98615,0.38518 2.47338,0.38745 l 0.88587,0.004 -0.18512,-1.65365 c -0.19893,-1.77697 -1.40447,-4.82328 -2.74571,-6.93818 -0.45391,-0.71575 -0.82529,-1.53693 -0.82529,-1.82484 0,-0.49723 -0.0328,-0.4927 -0.6533,0.0903 -0.35932,0.33756 -0.59042,0.7155 -0.51356,0.83987 0.0769,0.12436 -0.0756,0.23993 -0.33888,0.25681 -0.44646,0.0286 -0.44729,0.0389 -0.0124,0.15232 0.59928,0.15632 0.32755,0.61074 -0.3652,0.61074 -0.29105,0 -0.46067,-0.11084 -0.37695,-0.2463 0.0837,-0.13547 0.0312,-0.32109 -0.11667,-0.41249 -0.4596,-0.28405 -0.29569,-0.66413 0.2864,-0.66413 0.73359,0 1.95395,-1.33181 2.02679,-2.21187 0.0679,-0.82016 0.009,-0.83675 -0.93776,-0.26391 l -0.71829,0.43463 0.75965,-0.64695 0.75965,-0.64694 -0.57203,-1.12126 c -1.04073,-2.03999 -3.20039,-2.11673 -3.1921,-0.11343 0.006,1.42653 0.67224,4.06808 1.0935,4.33504 0.19667,0.12462 0.23803,0.22841 0.0919,0.23064 -0.16209,0.002 -0.23689,0.85507 -0.19187,2.18687 0.11447,3.38652 0.11283,3.39661 -0.8669,5.33331 -0.82723,1.63523 -1.35217,3.62371 -0.67336,2.55067 0.13369,-0.21133 0.18945,-0.47099 0.12392,-0.57703 -0.13359,-0.21615 0.36594,-0.58334 0.90453,-0.66487 0.26149,-0.0396 0.24426,0.0673 -0.0661,0.41027 -0.6437,0.71127 -0.51634,1.76634 0.30517,2.52808 0.87411,0.81053 0.96481,0.82703 0.78594,0.143 z m 0.87636,-5.54188 c -0.17756,-0.42866 -0.51942,-0.83157 -0.7597,-0.89535 -0.38405,-0.10194 -0.38089,-0.11968 0.0261,-0.14666 0.44384,-0.0294 0.57554,-0.30846 0.48277,-1.02288 -0.0236,-0.1819 0.0884,-0.33073 0.24885,-0.33073 0.16048,0 0.21821,0.11907 0.12827,0.26459 -0.0899,0.14552 -0.0672,0.26531 0.0505,0.26621 0.11773,9e-4 0.2261,0.59621 0.24083,1.32292 0.0313,1.54401 0.009,1.57262 -0.4177,0.5419 z m 0.32478,-3.19127 c -1.12507,-1.07112 -0.91636,-1.79968 0.46302,-1.61629 0.2367,0.0315 0.29009,-0.0318 0.13229,-0.15671 -0.45518,-0.36037 -0.3987,-0.80874 0.11893,-0.9441 0.34368,-0.0899 0.54107,0.039 0.64018,0.41801 0.16854,0.64448 -0.72808,1.39897 -1.55286,1.30669 -0.48271,-0.054 -0.47895,-0.0377 0.0429,0.18583 0.31462,0.13477 0.65007,0.49088 0.74543,0.79134 0.24265,0.7645 0.71212,0.68632 0.51821,-0.0863 -0.0876,-0.34909 -0.0276,-0.71364 0.13381,-0.81342 0.16378,-0.10122 0.26057,-0.0304 0.21987,0.16078 -0.04,0.18788 0.34402,0.55374 0.85334,0.81301 0.50933,0.25927 0.73257,0.47158 0.4961,0.47181 -0.23647,2.3e-4 -0.77226,0.0651 -1.19063,0.14421 -0.60159,0.11372 -0.94051,-0.0274 -1.62057,-0.67487 z m -1.47463,-3.63612 c -0.22007,-0.37391 -0.48578,-1.91823 -0.33004,-1.91823 0.53503,0 1.7089,1.43668 1.4393,1.76153 -0.32138,0.38725 -0.92351,0.4723 -1.10926,0.1567 z m -10.10089,4.43177 c -0.0899,-0.14552 0.0291,-0.26458 0.26458,-0.26458 0.23546,0 0.35774,-0.11386 0.27173,-0.25303 -0.086,-0.13916 -0.33116,-0.18596 -0.54479,-0.10398 -0.76163,0.29226 -0.36938,-0.40851 0.80949,-1.44619 0.93265,-0.82095 1.40134,-1.04866 2.11667,-1.02839 1.02584,0.0291 1.24539,0.36715 0.32346,0.49808 -0.42624,0.0605 -0.61908,0.29119 -0.67903,0.81216 l -0.0837,0.7276 h 1.98305 c 1.40994,0 2.09775,-0.1147 2.37993,-0.39688 0.7788,-0.7788 2.19902,-0.45857 2.0535,0.46303 -0.0931,0.58935 0.45838,0.0829 0.57619,-0.52917 0.43692,-2.27014 -0.91073,-4.51034 -3.35369,-5.57485 -1.11558,-0.4861 -0.68751,-0.6478 0.93306,-0.35245 0.77893,0.14196 1.42687,0.23887 1.43986,0.21536 0.013,-0.0235 -0.0301,-0.55739 -0.0958,-1.18639 -0.11657,-1.1166 -1.30734,-2.25855 -1.56114,-1.49715 -0.0522,0.15653 -0.94729,0.22438 -2.20608,0.16721 -3.46071,-0.15716 -4.66841,0.73712 -4.55373,3.37198 0.033,0.75925 -0.12498,1.4859 -0.43881,2.0178 l -0.49045,0.83125 1.44662,-0.78352 c 1.83139,-0.99192 4.93097,-1.18195 5.84473,-0.35832 0.29834,0.26891 0.67787,0.40524 0.8434,0.30293 0.3413,-0.21093 -0.44419,-0.67944 -1.99997,-1.19289 -0.79017,-0.26078 -1.27367,-0.25855 -2.39761,0.0111 -1.85056,0.44395 -2.4245,0.0976 -1.8094,-1.09188 0.44521,-0.86094 1.70603,-1.11366 1.70603,-0.34196 0,0.29336 -0.14105,0.37106 -0.45495,0.2506 -0.25023,-0.096 -0.37032,-0.09 -0.26688,0.0135 0.10344,0.10344 0.0403,0.36742 -0.14036,0.58662 -0.18064,0.2192 0.17522,0.0813 0.79079,-0.30639 0.61557,-0.38771 1.29031,-0.70493 1.49942,-0.70493 0.60573,0 2.80532,1.01398 2.80532,1.29322 0,0.13952 0.29493,0.60419 0.65541,1.0326 l 0.65541,0.77891 -1.17726,0.16137 c -0.64749,0.0887 -2.40094,0.0942 -3.89656,0.0121 -2.1649,-0.11886 -2.8253,-0.0694 -3.23923,0.24257 -0.4919,0.37074 -0.47571,0.38672 0.3002,0.29637 l 0.82014,-0.0955 -0.89552,0.92214 c -0.49253,0.50717 -0.89551,1.08882 -0.89551,1.29255 0,0.20373 -0.0683,0.54834 -0.15172,0.7658 -0.0937,0.24416 0.0328,0.44308 0.33073,0.52011 0.26535,0.0686 0.51924,0.13855 0.56421,0.15543 0.045,0.0169 0.008,-0.0884 -0.0818,-0.23389 z m 0.77551,-7.49748 c -0.22168,-0.57212 0.97668,-1.93766 1.44593,-1.64765 0.4577,0.28288 0.34915,1.20763 -0.14175,1.20763 -0.23862,0 -0.58731,0.20836 -0.77486,0.46302 -0.32332,0.43902 -0.35076,0.43783 -0.52932,-0.023 z m 26.62635,0.30479 c -0.64453,-4.01557 -0.6997,-4.78365 -0.42625,-5.93394 0.24136,-1.01528 -1.30101,-2.48282 -1.58741,-1.51039 -0.078,0.265 -0.43428,1.07074 -0.79163,1.79053 l -0.64973,1.30871 1.90998,4.03428 c 1.05049,2.21885 1.9551,3.98915 2.01025,3.93401 0.0551,-0.0552 -0.1542,-1.68559 -0.46521,-3.6232 z m -24.89305,-3.9384 c 0.60122,-0.0278 -0.53803,-0.47513 -1.1859,-0.4656 -0.43394,0.006 -0.41014,0.0495 0.1323,0.23952 0.60878,0.21328 0.59409,0.22553 -0.18447,0.15379 -0.46525,-0.0429 -0.78565,0.0196 -0.71199,0.13876 0.0737,0.11919 0.008,0.21671 -0.14626,0.21671 -0.15411,0 -0.2802,0.24241 -0.2802,0.5387 0,0.51826 0.0375,0.51323 0.98746,-0.13229 0.5431,-0.36905 1.16818,-0.67936 1.38906,-0.68959 z m 6.36875,-0.98241 c -1.36217,-2.40081 -6.09944,-5.01402 -6.09944,-3.36462 0,0.21828 0.11907,0.39687 0.26459,0.39687 0.14552,0 0.26458,0.12325 0.26458,0.2739 0,0.18447 -0.19435,0.17971 -0.59531,-0.0146 -0.58275,-0.2824 -0.58414,-0.27941 -0.0661,0.14166 0.29104,0.23658 0.50925,0.51104 0.48491,0.6099 -0.0243,0.0989 0.42215,0.16215 0.99219,0.14062 0.57004,-0.0215 1.03644,0.0758 1.03644,0.21627 0,0.1427 -0.2627,0.17466 -0.59531,0.0724 -0.69986,-0.21512 -0.58214,-0.0553 0.29651,0.40247 0.49426,0.25753 0.58462,0.25785 0.4262,0.002 -0.12794,-0.20699 -0.0734,-0.28275 0.14997,-0.2083 1.19436,0.39813 -1.20436,1.94132 -2.59758,1.67113 -0.60049,-0.11645 -0.63314,-0.0979 -0.19333,0.10994 0.29104,0.13753 1.00542,0.26679 1.5875,0.28724 0.86232,0.0303 0.96033,0.0818 0.52917,0.27805 -0.3733,0.1699 -0.17847,0.20136 0.66146,0.10678 0.93619,-0.10542 1.41678,-10e-4 2.24895,0.488 1.96144,1.15289 2.42242,0.53708 1.20465,-1.60925 z m -3.25992,-1.64483 c -0.2492,-0.29104 -0.67253,-0.52917 -0.94075,-0.52917 -0.55948,0 -0.66414,-0.70325 -0.13488,-0.90635 0.19403,-0.0744 0.35278,0.0372 0.35278,0.24816 0,0.21094 0.32742,0.4618 0.7276,0.55746 1.26452,0.30228 1.78086,0.65149 1.35867,0.91887 -0.55986,0.35456 -0.8684,0.28917 -1.36342,-0.28897 z m 27.08066,2.05788 c 0.30352,-1.1349 -1.28475,-3.52932 -2.29621,-3.46169 l -0.76876,0.0514 0.71799,-0.38554 c 0.60778,-0.32636 0.81253,-1.17247 0.28373,-1.17247 -0.0728,0 -0.0527,0.20836 0.0447,0.46302 0.12722,0.33292 0.0162,0.29083 -0.39517,-0.14978 -0.31466,-0.33704 -0.50777,-0.67715 -0.42912,-0.7558 0.0786,-0.0786 0.0274,-0.27913 -0.11388,-0.44553 -1.37879,-1.6239 -1.85474,-2.09511 -1.78178,-1.76402 0.0522,0.23681 -0.1483,0.42635 -0.50923,0.48142 -0.32742,0.05 -0.59531,0.15059 -0.59531,0.22362 0,0.3221 0.81509,0.90678 1.0563,0.7577 0.15224,-0.0941 0.26661,0.12213 0.26661,0.504 0,0.52382 0.10035,0.63276 0.46302,0.50262 0.25467,-0.0914 0.37347,-0.0675 0.26401,0.053 -0.10946,0.12052 -0.0138,0.42382 0.21265,0.67401 0.22642,0.25018 0.4303,0.70232 0.45308,1.00473 0.0312,0.41441 0.17479,0.51638 0.58282,0.41398 0.4024,-0.101 0.66718,0.0771 1.03143,0.69369 0.50783,0.85969 0.76738,2.89961 0.36893,2.89961 -0.28241,0 -1.24558,-2.08391 -1.25346,-2.71198 -0.004,-0.29434 -0.21127,-0.46302 -0.56981,-0.46302 -0.50305,0 -0.54902,0.11174 -0.42534,1.03388 0.0763,0.56863 0.0324,1.16394 -0.0974,1.32291 -0.15295,0.18723 -0.13805,0.20961 0.0423,0.0635 0.16879,-0.13671 0.58661,0.0624 1.06104,0.50556 0.97377,0.90963 2.09566,0.75038 2.38696,-0.33883 z m -8.39833,42.32597 c 0.10725,-1.0842 1.98223,-4.11929 2.27469,-3.68212 0.0815,0.12189 0.35085,0.33201 0.59846,0.46693 0.41706,0.22726 0.40976,0.30919 -0.0992,1.11296 -0.30215,0.47721 -0.61016,0.80684 -0.68448,0.73252 -0.0743,-0.0743 0.0596,-0.43231 0.29758,-0.79553 0.59606,-0.9097 0.54367,-1.13541 -0.0876,-0.37761 -0.2862,0.34354 -0.52433,0.48282 -0.52917,0.30951 -0.005,-0.17331 0.11026,-0.3887 0.25578,-0.47864 0.14552,-0.0899 0.26458,-0.30106 0.26458,-0.46918 0,-0.45222 -0.59739,0.27168 -1.42433,1.72596 -0.83031,1.46019 -0.74624,1.70227 0.11002,0.31681 0.31951,-0.51698 0.63835,-0.88253 0.70854,-0.81234 0.12472,0.12471 -1.43498,2.54605 -1.64004,2.54605 -0.0571,0 -0.0772,-0.26789 -0.0448,-0.59532 z m -8.94091,-1.82762 c 0.13917,-0.43847 0.0891,-0.53261 -0.22002,-0.41398 -0.57091,0.21908 -0.77095,-1.02671 -0.23457,-1.46088 0.33818,-0.27375 0.37112,-0.26683 0.18669,0.0392 -0.15317,0.25414 -0.12604,0.31109 0.0858,0.18015 0.17037,-0.1053 0.24636,-0.29406 0.16885,-0.41947 -0.0775,-0.12541 -0.0199,-0.30281 0.12798,-0.39421 0.36132,-0.22331 0.34496,0.74148 -0.0187,1.10518 -0.20713,0.20713 -0.19569,0.34447 0.0409,0.49067 0.22561,0.13944 0.26146,0.0945 0.11446,-0.14331 -0.13236,-0.21416 -0.11009,-0.28209 0.0583,-0.178 0.40839,0.2524 0.32793,1.44837 -0.10871,1.61593 -0.28792,0.11048 -0.33706,0.007 -0.20098,-0.42128 z m 21.38543,-2.92788 c 0.0821,-0.26206 -0.0357,-0.55596 -0.27696,-0.69099 -0.28852,-0.16146 -0.32646,-0.29269 -0.1213,-0.41949 0.16421,-0.10148 0.29856,-0.0499 0.29856,0.11458 0,0.18526 0.14419,0.1549 0.37888,-0.0798 0.53733,-0.53733 0.34341,-1.39191 -0.30033,-1.3235 -0.3041,0.0323 -0.51952,-0.10482 -0.51952,-0.33073 0,-0.21226 0.0542,-0.33175 0.12042,-0.26552 0.0662,0.0662 0.47311,-0.23227 0.90417,-0.66333 0.98037,-0.98037 1.38664,-0.78127 0.88002,0.43126 -0.42456,1.01611 -0.29719,1.69915 0.31685,1.69915 0.33288,0 0.34293,0.0699 0.0592,0.4118 -0.18797,0.2265 -0.23231,0.37532 -0.0985,0.33073 0.13377,-0.0446 0.27299,0.008 0.30937,0.11737 0.0364,0.10914 -0.0231,0.18328 -0.13229,0.16475 -0.59971,-0.10181 -0.80917,-0.31981 -0.66594,-0.69307 0.10627,-0.27693 0.0559,-0.3537 -0.14899,-0.22708 -0.17026,0.10522 -0.30955,0.34012 -0.30955,0.522 0,0.18188 -0.18832,0.56181 -0.41848,0.84428 -0.34857,0.42781 -0.3946,0.43743 -0.27557,0.0576 z m -22.85387,-0.8603 c 0,-0.27175 0.20185,-0.71713 0.44855,-0.98973 0.2467,-0.2726 0.48609,-0.74162 0.53197,-1.04226 0.10434,-0.68369 1.0775,-2.07564 1.45115,-2.07564 0.17315,0 0.15403,0.15053 -0.0504,0.39687 -0.26435,0.31852 -0.26076,0.39688 0.0182,0.39688 0.25345,0 0.23641,0.0895 -0.0629,0.33073 -0.56216,0.45295 -0.78724,1.19823 -0.4034,1.33574 0.17372,0.0622 0.25502,0.15923 0.18065,0.21553 -0.0744,0.0563 -0.58038,0.51268 -1.12448,1.01417 -0.81674,0.75278 -0.98927,0.82563 -0.98927,0.41771 z m 14.4077,-4.17605 c -0.0919,-0.23947 -0.10076,-0.54273 -0.0197,-0.67389 0.0811,-0.13116 0.006,-0.61338 -0.16707,-1.07158 -0.28256,-0.74858 -0.25164,-0.89342 0.30483,-1.42783 l 0.61928,-0.59474 -0.44893,0.79375 c -0.42245,0.74691 -0.42243,0.75862 2.6e-4,0.19844 0.43214,-0.57256 1.38108,-0.87253 1.04623,-0.33073 -0.0899,0.14552 -0.0176,0.26458 0.16077,0.26458 0.17837,0 0.24999,0.0743 0.15916,0.16514 -0.0908,0.0908 0.0977,0.38452 0.41892,0.65265 0.54601,0.45576 0.38888,0.6623 -0.40812,0.53646 -0.10914,-0.0172 -0.16867,0.0603 -0.13229,0.17233 0.15351,0.47269 -1.35897,1.77012 -1.53346,1.31542 z m -6.20561,-4.93024 c 0,-0.11042 0.32657,-0.48941 0.72571,-0.8422 l 0.72571,-0.64144 -0.52727,0.66146 -0.52728,0.66146 0.57747,-0.48788 c 0.31761,-0.26833 0.51323,-0.65529 0.43471,-0.8599 -0.094,-0.24499 0.0422,-0.37201 0.39903,-0.37201 0.50666,0 0.51718,0.0472 0.16223,0.7276 -0.20875,0.40019 -0.38029,0.85832 -0.38118,1.01807 -8e-4,0.15976 -0.35882,0.30062 -0.79538,0.31304 -0.43657,0.0124 -0.79375,-0.0678 -0.79375,-0.1782 z m 12.7,-1.43307 c 0,-1.10823 0.67523,-1.74995 1.16681,-1.1089 0.22318,0.29104 0.34961,0.68773 0.28094,0.88154 -0.0687,0.1938 -0.12484,0.46169 -0.12484,0.59531 0,0.13362 -0.12609,0.24294 -0.2802,0.24294 -0.15411,0 -0.19617,-0.14882 -0.0935,-0.33073 0.14937,-0.26458 0.11546,-0.26458 -0.1696,0 -0.53063,0.49253 -0.77964,0.40305 -0.77964,-0.28016 z m -11.63287,-1.8162 c -0.005,-0.38902 0.31443,-1.1034 0.70949,-1.5875 0.43195,-0.52931 0.50275,-0.69562 0.1776,-0.41718 -0.29737,0.25466 -0.60509,0.46302 -0.68382,0.46302 -0.0787,0 -0.14233,-0.20836 -0.14134,-0.46302 0.004,-0.99031 -0.0811,-1.17713 -0.46761,-1.0288 -0.51662,0.19825 -0.50443,-0.21472 0.0304,-1.03103 0.55742,-0.85071 2.21853,-0.95449 2.21853,-0.1386 0,0.28246 -0.13746,0.59851 -0.30546,0.70234 -0.20555,0.12704 -0.23486,0.0672 -0.0896,-0.18282 0.11871,-0.20438 -0.0812,-0.10161 -0.44419,0.2284 -0.36301,0.33 -0.66002,0.77649 -0.66002,0.99219 0,0.21569 0.0694,0.32272 0.15434,0.23784 0.0849,-0.0849 0.15434,-0.28138 0.15434,-0.43666 0,-0.15527 0.28387,-0.32564 0.63083,-0.37858 0.53727,-0.082 0.58152,-0.0369 0.29833,0.30436 -0.18287,0.22035 -0.24469,0.40063 -0.13738,0.40063 0.10732,0 -0.002,0.30102 -0.24318,0.66894 -0.24107,0.36791 -0.37446,0.77222 -0.29643,0.89848 0.078,0.12625 -0.0917,0.50984 -0.37708,0.85242 l -0.51894,0.62287 -0.009,-0.7073 z m 9.93522,-7.06212 c 0.0582,-0.84067 0.58661,-1.76419 0.85554,-1.49526 0.0774,0.0775 0.32837,-0.12803 0.55761,-0.45662 0.22923,-0.3286 0.65049,-0.63825 0.93611,-0.68812 0.40702,-0.0711 0.29259,0.16637 -0.52916,1.09795 -0.57667,0.65375 -1.23528,1.45837 -1.46356,1.78805 -0.41374,0.59751 -0.41488,0.59673 -0.35654,-0.246 z m 12.2906,-5.71274 c -0.17587,-0.2119 -0.24295,-0.50956 -0.14907,-0.66146 0.0939,-0.15189 0.0446,-0.27617 -0.10952,-0.27617 -0.15411,0 -0.2802,-0.17268 -0.2802,-0.38373 0,-0.21105 -0.20836,-0.50508 -0.46302,-0.65341 -0.41184,-0.23988 -0.39607,-0.27057 0.14273,-0.27773 0.45937,-0.006 0.53711,-0.088 0.3217,-0.33878 -0.15622,-0.1819 -0.45927,-0.56885 -0.67343,-0.85989 -0.36073,-0.49021 -0.36969,-0.47073 -0.12173,0.26458 0.24837,0.73652 0.23895,0.75672 -0.13075,0.28016 -0.34758,-0.44806 -0.43439,-0.7517 -0.38681,-1.35283 0.006,-0.0806 -0.2615,-0.37434 -0.59531,-0.65265 -0.33381,-0.27832 -0.50304,-0.50999 -0.37609,-0.51483 0.12696,-0.005 0.0802,-0.19028 -0.10384,-0.41208 -0.18408,-0.22179 -0.25889,-0.47906 -0.16626,-0.57169 0.0926,-0.0926 -0.0894,-0.29812 -0.40442,-0.45663 -0.70678,-0.35557 -0.93955,-0.94966 -0.37211,-0.94966 0.23041,0 0.41893,0.16586 0.41893,0.36857 0,0.20271 0.18614,0.44 0.41364,0.5273 0.22751,0.0873 0.34725,0.26616 0.26611,0.39746 -0.0812,0.1313 0.0379,0.30989 0.26458,0.39687 0.22667,0.087 0.34171,0.27208 0.25565,0.41133 -0.0861,0.13924 0.0869,0.38342 0.38435,0.54261 0.4528,0.24233 0.57429,0.19897 0.74645,-0.26644 0.22647,-0.61221 0.95558,-0.10852 1.15411,0.7973 0.0478,0.21828 0.20604,0.49397 0.35156,0.61265 0.14553,0.11867 -0.0331,0.13641 -0.39687,0.0394 -0.3638,-0.097 -0.79461,-0.34423 -0.95736,-0.54944 -0.25442,-0.3208 -0.33981,-0.32017 -0.60924,0.004 -0.2508,0.3022 -0.20983,0.41041 0.20531,0.54217 0.28526,0.0905 0.58834,0.34623 0.67352,0.56819 0.0852,0.22197 0.27568,0.3289 0.42335,0.23764 0.14766,-0.0913 0.4431,0.009 0.65652,0.22212 0.34101,0.341 0.33715,0.40758 -0.0318,0.54917 -0.28201,0.10821 -0.33953,0.26868 -0.17518,0.48871 0.13459,0.18018 0.23427,0.56573 0.22152,0.85677 -0.0128,0.29104 0.0733,0.73753 0.19128,0.99219 0.2604,0.56218 -0.14209,0.61536 -0.58828,0.0777 z m -0.01,-5.4135 c -0.21828,-0.25466 -0.4332,-0.63169 -0.47759,-0.83785 -0.0444,-0.20615 -0.5583,-1.31673 -1.142,-2.46796 -0.70052,-1.38162 -1.09732,-2.55083 -1.16732,-3.43958 l -0.10604,-1.34645 0.2602,1.43443 c 0.31414,1.73174 1.67447,4.27076 1.93057,3.60337 0.11109,-0.28952 0.0644,-0.3717 -0.13956,-0.24564 -0.20657,0.12767 -0.24971,0.0414 -0.1323,-0.26458 0.0958,-0.24971 0.0654,-0.38677 -0.0676,-0.30457 -0.33381,0.20631 -0.88491,-2.42846 -0.74494,-3.56155 0.10731,-0.86877 0.11863,-0.85241 0.1831,0.26458 0.0587,1.01623 0.0998,1.09374 0.28055,0.52917 0.18142,-0.56649 0.21562,-0.50337 0.23821,0.43957 0.0147,0.6147 0.43098,2.04635 0.94238,3.24115 0.90895,2.12363 1.05155,2.80951 0.29366,1.41251 -0.38514,-0.70993 -0.39499,-0.71253 -0.40532,-0.10699 -0.006,0.34134 0.23564,0.96642 0.53659,1.38906 0.5884,0.82633 0.37267,1.02582 -0.2826,0.26133 z m -2.64958,-1.74728 c -0.4526,-0.65784 -0.92383,-1.1337 -1.04717,-1.05748 -0.3122,0.19295 -1.06575,-0.12734 -1.06575,-0.45299 0,-0.15845 0.15806,-0.1375 0.38529,0.0511 0.47239,0.39206 0.96921,0.13522 0.76547,-0.39572 -0.082,-0.21363 -0.0371,-0.38841 0.0998,-0.38841 0.45626,0 0.60044,0.34403 0.29727,0.70932 -0.23358,0.28145 -0.21324,0.32795 0.0922,0.21074 0.21555,-0.0827 0.54689,0.0363 0.7363,0.26458 0.29561,0.35619 0.27351,0.39197 -0.15605,0.25257 -0.3117,-0.10115 -0.17523,0.12108 0.36184,0.58926 0.47426,0.41341 0.86121,0.90049 0.8599,1.08239 -0.005,0.6476 -0.51813,0.31329 -1.32905,-0.86534 z"
       id="path315" /></g></svg>
